<svg width="31" height="34" viewBox="0 0 31 34" fill="none" xmlns="http://www.w3.org/2000/svg">
<path d="M15.9277 26.7731H16.4277C17.0521 26.7731 17.6512 26.5251 18.0928 26.0836C18.5343 25.6421 18.7821 25.0429 18.7822 24.4186C18.7822 23.7942 18.5343 23.1951 18.0928 22.7535C17.6512 22.312 17.0522 22.0641 16.4277 22.0641H15.9277V26.7731ZM14.5732 16.5006C13.9488 16.5006 13.3497 16.7485 12.9082 17.1901C12.4668 17.6316 12.2188 18.2308 12.2188 18.8551C12.2189 19.4793 12.4669 20.0777 12.9082 20.5192C13.3497 20.9607 13.9488 21.2096 14.5732 21.2096H15.0732V16.5006H14.5732ZM15.0732 22.0641H14.5732C13.7222 22.0641 12.9055 21.7255 12.3037 21.1237C11.7022 20.522 11.3644 19.7059 11.3643 18.8551C11.3643 18.0041 11.702 17.1874 12.3037 16.5856C12.9055 15.9838 13.7222 15.6461 14.5732 15.6461H15.0732V14.7184H15.9277V15.6461H16.4277C17.0915 15.6461 17.7393 15.8518 18.2812 16.235C18.7552 16.5702 19.1282 17.0265 19.3623 17.5543L19.4541 17.7858C19.4726 17.8384 19.4805 17.8941 19.4775 17.9498C19.4746 18.0059 19.4607 18.0613 19.4365 18.1119C19.4123 18.1625 19.3786 18.2083 19.3369 18.2457C19.2952 18.2832 19.2462 18.312 19.1934 18.3307C19.1405 18.3494 19.0843 18.3571 19.0283 18.3541C18.9724 18.3511 18.9177 18.3372 18.8672 18.3131C18.765 18.2643 18.6862 18.1767 18.6484 18.0699C18.4861 17.6109 18.1847 17.2133 17.7871 16.9323C17.3895 16.6512 16.9147 16.5005 16.4277 16.5006H15.9277V21.2096H16.4277C17.2788 21.2096 18.0955 21.5472 18.6973 22.149C19.299 22.7509 19.6367 23.5675 19.6367 24.4186C19.6366 25.2694 19.2988 26.0854 18.6973 26.6871C18.0955 27.2889 17.2788 27.6276 16.4277 27.6276H15.9277V28.5543H15.0732V27.6276H14.5732C13.9095 27.6275 13.2617 27.4219 12.7197 27.0387C12.1779 26.6556 11.7682 26.1135 11.5469 25.4879L11.542 25.4742C11.5215 25.421 11.5119 25.3642 11.5137 25.3073C11.5155 25.2502 11.5289 25.194 11.5527 25.1422C11.5766 25.0903 11.6111 25.044 11.6533 25.0055C11.6955 24.967 11.745 24.9366 11.7988 24.9176C11.8526 24.8987 11.9099 24.8907 11.9668 24.8942C12.0237 24.8976 12.0797 24.9128 12.1309 24.9381C12.1819 24.9634 12.2275 24.9985 12.2646 25.0416C12.3019 25.0849 12.3302 25.1357 12.3477 25.1901L12.3496 25.1969L12.3525 25.2037C12.677 26.1184 13.5483 26.773 14.5732 26.7731H15.0732V22.0641Z" fill="#FAFAFA" stroke="#FAFAFA"/>
<path d="M15.5361 0.809448C19.4382 0.809448 22.9978 2.04277 25.2168 3.12L25.3447 3.1825C25.784 3.39987 26.1638 3.60847 26.4766 3.7948L23.3457 8.37292L23.1143 8.71082L23.4014 9.00476C25.3396 10.9864 27.1698 13.5169 28.4805 16.1923C29.7934 18.8724 30.5683 21.6628 30.4414 24.1737C30.3155 26.6638 29.3056 28.8866 27.0166 30.5038C24.7054 32.1366 21.038 33.1884 15.5361 33.1884C10.0332 33.1883 6.35463 32.1548 4.02832 30.5438C1.72488 28.9487 0.698762 26.7545 0.557617 24.286C0.415299 21.7955 1.17566 19.0153 2.4834 16.3202C3.78876 13.63 5.62267 11.0594 7.58105 8.9989L7.85938 8.70691L7.63281 8.3739L4.52246 3.79675C4.67967 3.70416 4.85379 3.60749 5.04297 3.50671L5.04492 3.50574C5.2354 3.40331 5.44076 3.29779 5.66113 3.19031L5.71973 3.16199C7.95633 2.07592 11.5841 0.809495 15.5361 0.809448ZM22.457 9.69812C18.1083 11.3798 12.8703 11.38 8.52148 9.70007L8.20605 9.578L7.97559 9.82605C6.15769 11.7855 4.46568 14.1901 3.25098 16.6932C2.05983 19.149 1.36865 21.6147 1.39551 23.8036L1.41016 24.2372C1.5376 26.4718 2.44935 28.4116 4.5127 29.8417C6.63916 31.3136 10.1197 32.3338 15.5352 32.3339C20.9465 32.3339 24.4126 31.2956 26.5215 29.8055C28.5713 28.3568 29.4725 26.3909 29.5869 24.1298C29.7038 21.8131 28.9877 19.1697 27.7119 16.5673L27.7109 16.5653L27.4766 16.1044C26.2861 13.8113 24.7793 11.6958 23 9.82019L22.7695 9.57703L22.457 9.69812ZM24.2627 4.08093C21.9933 4.24436 19.3596 4.72976 16.7637 5.4198L15.6553 5.72742C13.7952 6.26476 11.7165 6.22705 9.72949 5.90027L9.33398 5.83093C8.80471 5.7328 8.27883 5.6166 7.75781 5.48132L6.47266 5.14734L7.21875 6.24597L8.99902 8.86707L9.09082 9.00281L9.24512 9.0575C13.1692 10.4545 17.7998 10.4545 21.7246 9.05945L21.8779 9.00476L21.9697 8.87L24.7119 4.86218L25.2969 4.00671L24.2627 4.08093ZM15.5352 1.66394C12.2535 1.66399 9.20628 2.5779 7.08008 3.48035L5.80078 4.02332L7.13281 4.4198C7.88954 4.64493 8.68189 4.84098 9.4873 4.99011H9.48828C11.5232 5.3649 13.6082 5.43009 15.417 4.90613L15.418 4.90515C17.3862 4.33179 19.3882 3.88147 21.4121 3.55554L21.4766 2.58289C19.7351 2.05858 17.6902 1.66394 15.5352 1.66394Z" fill="#FAFAFA" stroke="#FAFAFA"/>
</svg>
